<mxfile host="app.diagrams.net" agent="Mozilla/5.0 (Macintosh; Intel Mac OS X 10.15; rv:134.0) Gecko/20100101 Firefox/134.0" version="26.0.6">
  <diagram id="CirS74W1yyCGP_KkDUGx" name="ModeloConceptualCompleto">
    <mxGraphModel dx="3240" dy="900" grid="1" gridSize="10" guides="1" tooltips="1" connect="1" arrows="1" fold="1" page="1" pageScale="1" pageWidth="827" pageHeight="1169" math="0" shadow="0">
      <root>
        <mxCell id="0" />
        <mxCell id="1" parent="0" />
        <mxCell id="GQHDGKloXedWPg2WiuIK-1" value="Movie" style="whiteSpace=wrap;html=1;align=center;" parent="1" vertex="1">
          <mxGeometry x="610" y="320" width="100" height="40" as="geometry" />
        </mxCell>
        <mxCell id="GQHDGKloXedWPg2WiuIK-2" value="original_title" style="ellipse;whiteSpace=wrap;html=1;align=center;" parent="1" vertex="1">
          <mxGeometry x="610" y="217.5" width="90" height="30" as="geometry" />
        </mxCell>
        <mxCell id="GQHDGKloXedWPg2WiuIK-3" value="title" style="ellipse;whiteSpace=wrap;html=1;align=center;" parent="1" vertex="1">
          <mxGeometry x="590" y="190" width="60" height="25" as="geometry" />
        </mxCell>
        <mxCell id="GQHDGKloXedWPg2WiuIK-4" value="original_language" style="ellipse;whiteSpace=wrap;html=1;align=center;" parent="1" vertex="1">
          <mxGeometry x="386.5" y="260" width="121" height="30" as="geometry" />
        </mxCell>
        <mxCell id="GQHDGKloXedWPg2WiuIK-5" value="&lt;font style=&quot;font-size: 10px;&quot;&gt;budget&lt;/font&gt;" style="ellipse;whiteSpace=wrap;html=1;align=center;spacing=0;" parent="1" vertex="1">
          <mxGeometry x="560" y="280" width="65" height="25" as="geometry" />
        </mxCell>
        <mxCell id="GQHDGKloXedWPg2WiuIK-6" value="runtime" style="ellipse;whiteSpace=wrap;html=1;align=center;" parent="1" vertex="1">
          <mxGeometry x="814" y="260" width="70" height="30" as="geometry" />
        </mxCell>
        <mxCell id="GQHDGKloXedWPg2WiuIK-7" value="popularity" style="ellipse;whiteSpace=wrap;html=1;align=center;" parent="1" vertex="1">
          <mxGeometry x="760" y="287.5" width="80" height="30" as="geometry" />
        </mxCell>
        <mxCell id="GQHDGKloXedWPg2WiuIK-8" value="release_date" style="ellipse;whiteSpace=wrap;html=1;align=center;" parent="1" vertex="1">
          <mxGeometry x="499" y="170" width="100" height="30" as="geometry" />
        </mxCell>
        <mxCell id="GQHDGKloXedWPg2WiuIK-9" value="status" style="ellipse;whiteSpace=wrap;html=1;align=center;" parent="1" vertex="1">
          <mxGeometry x="430" y="217.5" width="60" height="30" as="geometry" />
        </mxCell>
        <mxCell id="GQHDGKloXedWPg2WiuIK-10" value="tagline" style="ellipse;whiteSpace=wrap;html=1;align=center;" parent="1" vertex="1">
          <mxGeometry x="492.5" y="205" width="60" height="25" as="geometry" />
        </mxCell>
        <mxCell id="GQHDGKloXedWPg2WiuIK-11" value="overview" style="ellipse;whiteSpace=wrap;html=1;align=center;" parent="1" vertex="1">
          <mxGeometry x="710" y="230" width="70" height="30" as="geometry" />
        </mxCell>
        <mxCell id="GQHDGKloXedWPg2WiuIK-12" value="companies" style="whiteSpace=wrap;html=1;align=center;" parent="1" vertex="1">
          <mxGeometry x="1230" y="320" width="140" height="40" as="geometry" />
        </mxCell>
        <mxCell id="GQHDGKloXedWPg2WiuIK-13" value="Id" style="ellipse;whiteSpace=wrap;html=1;align=center;fontStyle=4;" parent="1" vertex="1">
          <mxGeometry x="1220" y="250" width="71" height="35" as="geometry" />
        </mxCell>
        <mxCell id="GQHDGKloXedWPg2WiuIK-14" value="name" style="ellipse;whiteSpace=wrap;html=1;align=center;" parent="1" vertex="1">
          <mxGeometry x="1300" y="250" width="80" height="37.5" as="geometry" />
        </mxCell>
        <mxCell id="GQHDGKloXedWPg2WiuIK-15" value="" style="endArrow=none;html=1;rounded=0;entryX=0.5;entryY=1;entryDx=0;entryDy=0;exitX=0.25;exitY=0;exitDx=0;exitDy=0;" parent="1" source="GQHDGKloXedWPg2WiuIK-12" target="GQHDGKloXedWPg2WiuIK-13" edge="1">
          <mxGeometry relative="1" as="geometry">
            <mxPoint x="810" y="330" as="sourcePoint" />
            <mxPoint x="970" y="330" as="targetPoint" />
          </mxGeometry>
        </mxCell>
        <mxCell id="GQHDGKloXedWPg2WiuIK-16" value="" style="endArrow=none;html=1;rounded=0;entryX=0.5;entryY=1;entryDx=0;entryDy=0;exitX=0.5;exitY=0;exitDx=0;exitDy=0;" parent="1" source="GQHDGKloXedWPg2WiuIK-12" target="GQHDGKloXedWPg2WiuIK-14" edge="1">
          <mxGeometry relative="1" as="geometry">
            <mxPoint x="810" y="330" as="sourcePoint" />
            <mxPoint x="970" y="330" as="targetPoint" />
          </mxGeometry>
        </mxCell>
        <mxCell id="GQHDGKloXedWPg2WiuIK-17" value="Producida" style="shape=rhombus;perimeter=rhombusPerimeter;whiteSpace=wrap;html=1;align=center;" parent="1" vertex="1">
          <mxGeometry x="1000" y="310" width="120" height="60" as="geometry" />
        </mxCell>
        <mxCell id="GQHDGKloXedWPg2WiuIK-18" value="" style="endArrow=none;html=1;rounded=0;exitX=1;exitY=0.5;exitDx=0;exitDy=0;entryX=0;entryY=0.5;entryDx=0;entryDy=0;" parent="1" source="GQHDGKloXedWPg2WiuIK-1" target="GQHDGKloXedWPg2WiuIK-17" edge="1">
          <mxGeometry relative="1" as="geometry">
            <mxPoint x="810" y="330" as="sourcePoint" />
            <mxPoint x="970" y="330" as="targetPoint" />
          </mxGeometry>
        </mxCell>
        <mxCell id="GQHDGKloXedWPg2WiuIK-19" value="" style="endArrow=none;html=1;rounded=0;exitX=1;exitY=0.5;exitDx=0;exitDy=0;entryX=0;entryY=0.5;entryDx=0;entryDy=0;" parent="1" source="GQHDGKloXedWPg2WiuIK-17" target="GQHDGKloXedWPg2WiuIK-12" edge="1">
          <mxGeometry relative="1" as="geometry">
            <mxPoint x="910" y="390" as="sourcePoint" />
            <mxPoint x="1134" y="390" as="targetPoint" />
          </mxGeometry>
        </mxCell>
        <mxCell id="GQHDGKloXedWPg2WiuIK-20" value="personnel" style="whiteSpace=wrap;html=1;align=center;" parent="1" vertex="1">
          <mxGeometry x="492.5" y="625" width="140" height="40" as="geometry" />
        </mxCell>
        <mxCell id="GQHDGKloXedWPg2WiuIK-21" value="trabaja" style="shape=rhombus;perimeter=rhombusPerimeter;whiteSpace=wrap;html=1;align=center;" parent="1" vertex="1">
          <mxGeometry x="552.5" y="450" width="100" height="40" as="geometry" />
        </mxCell>
        <mxCell id="GQHDGKloXedWPg2WiuIK-22" value="" style="endArrow=none;html=1;rounded=0;exitX=0.5;exitY=1;exitDx=0;exitDy=0;entryX=0.5;entryY=0;entryDx=0;entryDy=0;" parent="1" source="GQHDGKloXedWPg2WiuIK-1" target="GQHDGKloXedWPg2WiuIK-21" edge="1">
          <mxGeometry relative="1" as="geometry">
            <mxPoint x="700" y="420" as="sourcePoint" />
            <mxPoint x="860" y="420" as="targetPoint" />
          </mxGeometry>
        </mxCell>
        <mxCell id="GQHDGKloXedWPg2WiuIK-23" value="" style="endArrow=none;html=1;rounded=0;exitX=0.5;exitY=1;exitDx=0;exitDy=0;entryX=0.5;entryY=0;entryDx=0;entryDy=0;" parent="1" source="GQHDGKloXedWPg2WiuIK-21" target="GQHDGKloXedWPg2WiuIK-20" edge="1">
          <mxGeometry relative="1" as="geometry">
            <mxPoint x="650" y="530" as="sourcePoint" />
            <mxPoint x="810" y="530" as="targetPoint" />
          </mxGeometry>
        </mxCell>
        <mxCell id="GQHDGKloXedWPg2WiuIK-24" value="id" style="ellipse;whiteSpace=wrap;html=1;align=center;fontStyle=4;" parent="1" vertex="1">
          <mxGeometry x="495" y="590" width="40" height="25" as="geometry" />
        </mxCell>
        <mxCell id="GQHDGKloXedWPg2WiuIK-25" value="" style="endArrow=none;html=1;rounded=0;exitX=0.5;exitY=1;exitDx=0;exitDy=0;entryX=0.25;entryY=0;entryDx=0;entryDy=0;" parent="1" source="GQHDGKloXedWPg2WiuIK-24" target="GQHDGKloXedWPg2WiuIK-20" edge="1">
          <mxGeometry relative="1" as="geometry">
            <mxPoint x="410" y="630" as="sourcePoint" />
            <mxPoint x="570" y="630" as="targetPoint" />
          </mxGeometry>
        </mxCell>
        <mxCell id="GQHDGKloXedWPg2WiuIK-26" value="credit_id" style="ellipse;whiteSpace=wrap;html=1;align=center;" parent="1" vertex="1">
          <mxGeometry x="485" y="463.11999999999995" width="60" height="31.88" as="geometry" />
        </mxCell>
        <mxCell id="GQHDGKloXedWPg2WiuIK-27" value="department" style="ellipse;whiteSpace=wrap;html=1;align=center;fontSize=10;" parent="1" vertex="1">
          <mxGeometry x="499" y="421.25" width="65" height="33.75" as="geometry" />
        </mxCell>
        <mxCell id="GQHDGKloXedWPg2WiuIK-28" value="" style="endArrow=none;html=1;rounded=0;exitX=1;exitY=0.5;exitDx=0;exitDy=0;entryX=0;entryY=0.5;entryDx=0;entryDy=0;" parent="1" source="GQHDGKloXedWPg2WiuIK-26" target="GQHDGKloXedWPg2WiuIK-21" edge="1">
          <mxGeometry relative="1" as="geometry">
            <mxPoint x="760" y="580" as="sourcePoint" />
            <mxPoint x="920" y="580" as="targetPoint" />
          </mxGeometry>
        </mxCell>
        <mxCell id="GQHDGKloXedWPg2WiuIK-29" value="" style="endArrow=none;html=1;rounded=0;exitX=0.5;exitY=1;exitDx=0;exitDy=0;entryX=0;entryY=0.5;entryDx=0;entryDy=0;" parent="1" source="GQHDGKloXedWPg2WiuIK-27" target="GQHDGKloXedWPg2WiuIK-21" edge="1">
          <mxGeometry relative="1" as="geometry">
            <mxPoint x="520" y="650" as="sourcePoint" />
            <mxPoint x="650" y="580" as="targetPoint" />
          </mxGeometry>
        </mxCell>
        <mxCell id="GQHDGKloXedWPg2WiuIK-30" value="countries" style="whiteSpace=wrap;html=1;align=center;" parent="1" vertex="1">
          <mxGeometry x="827" y="625" width="150" height="40" as="geometry" />
        </mxCell>
        <mxCell id="GQHDGKloXedWPg2WiuIK-31" value="Producida" style="shape=rhombus;perimeter=rhombusPerimeter;whiteSpace=wrap;html=1;align=center;" parent="1" vertex="1">
          <mxGeometry x="769" y="450" width="90" height="50" as="geometry" />
        </mxCell>
        <mxCell id="GQHDGKloXedWPg2WiuIK-32" value="" style="endArrow=none;html=1;rounded=0;exitX=0.5;exitY=1;exitDx=0;exitDy=0;entryX=0.5;entryY=0;entryDx=0;entryDy=0;" parent="1" source="GQHDGKloXedWPg2WiuIK-31" target="GQHDGKloXedWPg2WiuIK-30" edge="1">
          <mxGeometry relative="1" as="geometry">
            <mxPoint x="960" y="475" as="sourcePoint" />
            <mxPoint x="1215" y="565" as="targetPoint" />
          </mxGeometry>
        </mxCell>
        <mxCell id="GQHDGKloXedWPg2WiuIK-33" value="" style="endArrow=none;html=1;rounded=0;exitX=0.67;exitY=0.995;exitDx=0;exitDy=0;entryX=0.25;entryY=0;entryDx=0;entryDy=0;exitPerimeter=0;" parent="1" source="GQHDGKloXedWPg2WiuIK-86" target="GQHDGKloXedWPg2WiuIK-30" edge="1">
          <mxGeometry relative="1" as="geometry">
            <mxPoint x="819" y="580" as="sourcePoint" />
            <mxPoint x="957" y="640" as="targetPoint" />
          </mxGeometry>
        </mxCell>
        <mxCell id="GQHDGKloXedWPg2WiuIK-34" value="name" style="ellipse;whiteSpace=wrap;html=1;align=center;" parent="1" vertex="1">
          <mxGeometry x="924" y="571.25" width="70" height="40" as="geometry" />
        </mxCell>
        <mxCell id="GQHDGKloXedWPg2WiuIK-35" value="" style="endArrow=none;html=1;rounded=0;exitX=0.5;exitY=1;exitDx=0;exitDy=0;entryX=0.75;entryY=0;entryDx=0;entryDy=0;" parent="1" source="GQHDGKloXedWPg2WiuIK-34" target="GQHDGKloXedWPg2WiuIK-30" edge="1">
          <mxGeometry relative="1" as="geometry">
            <mxPoint x="1020" y="580" as="sourcePoint" />
            <mxPoint x="1180" y="580" as="targetPoint" />
          </mxGeometry>
        </mxCell>
        <mxCell id="GQHDGKloXedWPg2WiuIK-36" value="1: n" style="text;strokeColor=none;fillColor=none;spacingLeft=4;spacingRight=4;overflow=hidden;rotatable=0;points=[[0,0.5],[1,0.5]];portConstraint=eastwest;fontSize=12;whiteSpace=wrap;html=1;" parent="1" vertex="1">
          <mxGeometry x="640" y="380" width="30" height="20" as="geometry" />
        </mxCell>
        <mxCell id="GQHDGKloXedWPg2WiuIK-37" value="1: n" style="text;strokeColor=none;fillColor=none;spacingLeft=4;spacingRight=4;overflow=hidden;rotatable=0;points=[[0,0.5],[1,0.5]];portConstraint=eastwest;fontSize=12;whiteSpace=wrap;html=1;" parent="1" vertex="1">
          <mxGeometry x="570" y="600" width="40" height="30" as="geometry" />
        </mxCell>
        <mxCell id="GQHDGKloXedWPg2WiuIK-38" value="n : n" style="text;strokeColor=none;fillColor=none;spacingLeft=4;spacingRight=4;overflow=hidden;rotatable=0;points=[[0,0.5],[1,0.5]];portConstraint=eastwest;fontSize=12;whiteSpace=wrap;html=1;" parent="1" vertex="1">
          <mxGeometry x="655" y="455" width="40" height="30" as="geometry" />
        </mxCell>
        <mxCell id="GQHDGKloXedWPg2WiuIK-39" value="1: n" style="text;strokeColor=none;fillColor=none;spacingLeft=4;spacingRight=4;overflow=hidden;rotatable=0;points=[[0,0.5],[1,0.5]];portConstraint=eastwest;fontSize=12;whiteSpace=wrap;html=1;" parent="1" vertex="1">
          <mxGeometry x="1190" y="335" width="40" height="30" as="geometry" />
        </mxCell>
        <mxCell id="GQHDGKloXedWPg2WiuIK-40" value="1: n" style="text;strokeColor=none;fillColor=none;spacingLeft=4;spacingRight=4;overflow=hidden;rotatable=0;points=[[0,0.5],[1,0.5]];portConstraint=eastwest;fontSize=12;whiteSpace=wrap;html=1;" parent="1" vertex="1">
          <mxGeometry x="710" y="330" width="30" height="20" as="geometry" />
        </mxCell>
        <mxCell id="GQHDGKloXedWPg2WiuIK-41" value="n : n" style="text;strokeColor=none;fillColor=none;spacingLeft=4;spacingRight=4;overflow=hidden;rotatable=0;points=[[0,0.5],[1,0.5]];portConstraint=eastwest;fontSize=12;whiteSpace=wrap;html=1;" parent="1" vertex="1">
          <mxGeometry x="1040" y="360" width="40" height="30" as="geometry" />
        </mxCell>
        <mxCell id="GQHDGKloXedWPg2WiuIK-42" value="1: n" style="text;strokeColor=none;fillColor=none;spacingLeft=4;spacingRight=4;overflow=hidden;rotatable=0;points=[[0,0.5],[1,0.5]];portConstraint=eastwest;fontSize=12;whiteSpace=wrap;html=1;" parent="1" vertex="1">
          <mxGeometry x="899" y="601.88" width="30" height="20" as="geometry" />
        </mxCell>
        <mxCell id="GQHDGKloXedWPg2WiuIK-43" value="n : n" style="text;strokeColor=none;fillColor=none;spacingLeft=4;spacingRight=4;overflow=hidden;rotatable=0;points=[[0,0.5],[1,0.5]];portConstraint=eastwest;fontSize=12;whiteSpace=wrap;html=1;" parent="1" vertex="1">
          <mxGeometry x="859" y="460" width="40" height="30" as="geometry" />
        </mxCell>
        <mxCell id="GQHDGKloXedWPg2WiuIK-44" value="adult" style="ellipse;whiteSpace=wrap;html=1;align=center;rotation=0;" parent="1" vertex="1">
          <mxGeometry x="507.5" y="275" width="45" height="20" as="geometry" />
        </mxCell>
        <mxCell id="GQHDGKloXedWPg2WiuIK-45" value="&lt;font face=&quot;Helvetica&quot;&gt;&lt;code&gt;homepage&lt;br&gt;&lt;/code&gt;&lt;/font&gt;" style="ellipse;whiteSpace=wrap;html=1;align=center;" parent="1" vertex="1">
          <mxGeometry x="850" y="287.5" width="90" height="35" as="geometry" />
        </mxCell>
        <mxCell id="GQHDGKloXedWPg2WiuIK-46" value="id" style="ellipse;whiteSpace=wrap;html=1;align=center;fontStyle=4;" parent="1" vertex="1">
          <mxGeometry x="499" y="305" width="36" height="22.5" as="geometry" />
        </mxCell>
        <mxCell id="GQHDGKloXedWPg2WiuIK-47" value="poster_path" style="ellipse;whiteSpace=wrap;html=1;align=center;" parent="1" vertex="1">
          <mxGeometry x="507.5" y="247.5" width="88" height="25" as="geometry" />
        </mxCell>
        <mxCell id="GQHDGKloXedWPg2WiuIK-48" value="revenue" style="ellipse;whiteSpace=wrap;html=1;align=center;" parent="1" vertex="1">
          <mxGeometry x="655" y="185" width="70" height="30" as="geometry" />
        </mxCell>
        <mxCell id="GQHDGKloXedWPg2WiuIK-49" value="video" style="ellipse;whiteSpace=wrap;html=1;align=center;" parent="1" vertex="1">
          <mxGeometry x="824" y="220" width="50" height="30" as="geometry" />
        </mxCell>
        <mxCell id="GQHDGKloXedWPg2WiuIK-50" value="vote_average" style="ellipse;whiteSpace=wrap;html=1;align=center;" parent="1" vertex="1">
          <mxGeometry x="814" y="187.5" width="100" height="30" as="geometry" />
        </mxCell>
        <mxCell id="GQHDGKloXedWPg2WiuIK-51" value="collection" style="whiteSpace=wrap;html=1;align=center;" parent="1" vertex="1">
          <mxGeometry x="30" y="320" width="140" height="40" as="geometry" />
        </mxCell>
        <mxCell id="GQHDGKloXedWPg2WiuIK-52" value="actors" style="whiteSpace=wrap;html=1;align=center;" parent="1" vertex="1">
          <mxGeometry x="1190" y="625" width="100" height="40" as="geometry" />
        </mxCell>
        <mxCell id="GQHDGKloXedWPg2WiuIK-53" value="user" style="whiteSpace=wrap;html=1;align=center;" parent="1" vertex="1">
          <mxGeometry x="150" y="625" width="100" height="40" as="geometry" />
        </mxCell>
        <mxCell id="GQHDGKloXedWPg2WiuIK-54" value="" style="endArrow=none;html=1;rounded=0;exitX=1;exitY=0.5;exitDx=0;exitDy=0;entryX=0;entryY=0.5;entryDx=0;entryDy=0;" parent="1" source="GQHDGKloXedWPg2WiuIK-55" edge="1">
          <mxGeometry relative="1" as="geometry">
            <mxPoint x="446" y="340" as="sourcePoint" />
            <mxPoint x="610" y="340" as="targetPoint" />
          </mxGeometry>
        </mxCell>
        <mxCell id="GQHDGKloXedWPg2WiuIK-55" value="Pertenece" style="shape=rhombus;perimeter=rhombusPerimeter;whiteSpace=wrap;html=1;align=center;" parent="1" vertex="1">
          <mxGeometry x="270" y="315" width="100" height="50" as="geometry" />
        </mxCell>
        <mxCell id="GQHDGKloXedWPg2WiuIK-56" value="" style="endArrow=none;html=1;rounded=0;exitX=1;exitY=0.5;exitDx=0;exitDy=0;entryX=0;entryY=0.5;entryDx=0;entryDy=0;" parent="1" source="GQHDGKloXedWPg2WiuIK-51" target="GQHDGKloXedWPg2WiuIK-55" edge="1">
          <mxGeometry relative="1" as="geometry">
            <mxPoint x="180" y="420" as="sourcePoint" />
            <mxPoint x="338" y="420" as="targetPoint" />
          </mxGeometry>
        </mxCell>
        <mxCell id="GQHDGKloXedWPg2WiuIK-57" value="" style="endArrow=none;html=1;rounded=0;entryX=0.5;entryY=0;entryDx=0;entryDy=0;exitX=0.5;exitY=1;exitDx=0;exitDy=0;" parent="1" source="GQHDGKloXedWPg2WiuIK-60" target="GQHDGKloXedWPg2WiuIK-53" edge="1">
          <mxGeometry relative="1" as="geometry">
            <mxPoint x="420" y="470" as="sourcePoint" />
            <mxPoint x="514" y="540" as="targetPoint" />
          </mxGeometry>
        </mxCell>
        <mxCell id="GQHDGKloXedWPg2WiuIK-58" value="" style="endArrow=none;html=1;rounded=0;entryX=0.5;entryY=0;entryDx=0;entryDy=0;exitX=0.5;exitY=1;exitDx=0;exitDy=0;" parent="1" source="GQHDGKloXedWPg2WiuIK-62" target="GQHDGKloXedWPg2WiuIK-52" edge="1">
          <mxGeometry relative="1" as="geometry">
            <mxPoint x="1204" y="445" as="sourcePoint" />
            <mxPoint x="854" y="650" as="targetPoint" />
          </mxGeometry>
        </mxCell>
        <mxCell id="GQHDGKloXedWPg2WiuIK-59" value="" style="endArrow=none;html=1;rounded=0;exitX=0.5;exitY=1;exitDx=0;exitDy=0;entryX=0.5;entryY=0;entryDx=0;entryDy=0;" parent="1" source="GQHDGKloXedWPg2WiuIK-1" target="GQHDGKloXedWPg2WiuIK-31" edge="1">
          <mxGeometry relative="1" as="geometry">
            <mxPoint x="740" y="405" as="sourcePoint" />
            <mxPoint x="770" y="495" as="targetPoint" />
          </mxGeometry>
        </mxCell>
        <mxCell id="GQHDGKloXedWPg2WiuIK-60" value="califica" style="shape=rhombus;perimeter=rhombusPerimeter;whiteSpace=wrap;html=1;align=center;" parent="1" vertex="1">
          <mxGeometry x="190" y="440" width="100" height="40" as="geometry" />
        </mxCell>
        <mxCell id="GQHDGKloXedWPg2WiuIK-61" value="" style="endArrow=none;html=1;rounded=0;exitX=0.5;exitY=1;exitDx=0;exitDy=0;entryX=0.5;entryY=0;entryDx=0;entryDy=0;" parent="1" source="GQHDGKloXedWPg2WiuIK-1" target="GQHDGKloXedWPg2WiuIK-60" edge="1">
          <mxGeometry relative="1" as="geometry">
            <mxPoint x="535" y="365" as="sourcePoint" />
            <mxPoint x="420" y="460" as="targetPoint" />
          </mxGeometry>
        </mxCell>
        <mxCell id="GQHDGKloXedWPg2WiuIK-62" value="actuan" style="shape=rhombus;perimeter=rhombusPerimeter;whiteSpace=wrap;html=1;align=center;" parent="1" vertex="1">
          <mxGeometry x="1070" y="455" width="100" height="40" as="geometry" />
        </mxCell>
        <mxCell id="GQHDGKloXedWPg2WiuIK-63" value="" style="endArrow=none;html=1;rounded=0;entryX=0.5;entryY=0;entryDx=0;entryDy=0;exitX=0.5;exitY=1;exitDx=0;exitDy=0;" parent="1" source="GQHDGKloXedWPg2WiuIK-1" target="GQHDGKloXedWPg2WiuIK-62" edge="1">
          <mxGeometry relative="1" as="geometry">
            <mxPoint x="800" y="380" as="sourcePoint" />
            <mxPoint x="970" y="490" as="targetPoint" />
          </mxGeometry>
        </mxCell>
        <mxCell id="GQHDGKloXedWPg2WiuIK-64" value="" style="endArrow=none;html=1;rounded=0;exitX=1;exitY=0.5;exitDx=0;exitDy=0;entryX=0;entryY=0;entryDx=0;entryDy=0;" parent="1" source="GQHDGKloXedWPg2WiuIK-46" target="GQHDGKloXedWPg2WiuIK-1" edge="1">
          <mxGeometry relative="1" as="geometry">
            <mxPoint x="480" y="309.13" as="sourcePoint" />
            <mxPoint x="730" y="309.13" as="targetPoint" />
          </mxGeometry>
        </mxCell>
        <mxCell id="GQHDGKloXedWPg2WiuIK-65" value="" style="endArrow=none;html=1;rounded=0;exitX=0.5;exitY=1;exitDx=0;exitDy=0;entryX=0.25;entryY=0;entryDx=0;entryDy=0;" parent="1" source="GQHDGKloXedWPg2WiuIK-44" target="GQHDGKloXedWPg2WiuIK-1" edge="1">
          <mxGeometry relative="1" as="geometry">
            <mxPoint x="552" y="295" as="sourcePoint" />
            <mxPoint x="680" y="325" as="targetPoint" />
          </mxGeometry>
        </mxCell>
        <mxCell id="GQHDGKloXedWPg2WiuIK-66" value="" style="endArrow=none;html=1;rounded=0;exitX=0.5;exitY=1;exitDx=0;exitDy=0;entryX=0.5;entryY=0;entryDx=0;entryDy=0;" parent="1" source="GQHDGKloXedWPg2WiuIK-5" target="GQHDGKloXedWPg2WiuIK-1" edge="1">
          <mxGeometry relative="1" as="geometry">
            <mxPoint x="610" y="292.5" as="sourcePoint" />
            <mxPoint x="710" y="319.5" as="targetPoint" />
          </mxGeometry>
        </mxCell>
        <mxCell id="GQHDGKloXedWPg2WiuIK-67" value="" style="endArrow=none;html=1;rounded=0;exitX=0.5;exitY=1;exitDx=0;exitDy=0;entryX=1;entryY=0;entryDx=0;entryDy=0;" parent="1" source="GQHDGKloXedWPg2WiuIK-45" target="GQHDGKloXedWPg2WiuIK-1" edge="1">
          <mxGeometry relative="1" as="geometry">
            <mxPoint x="760" y="300" as="sourcePoint" />
            <mxPoint x="710" y="310" as="targetPoint" />
            <Array as="points">
              <mxPoint x="730" y="330" />
            </Array>
          </mxGeometry>
        </mxCell>
        <mxCell id="GQHDGKloXedWPg2WiuIK-68" value="" style="endArrow=none;html=1;rounded=0;exitX=0.5;exitY=1;exitDx=0;exitDy=0;entryX=0.631;entryY=-0.005;entryDx=0;entryDy=0;entryPerimeter=0;" parent="1" source="GQHDGKloXedWPg2WiuIK-2" target="GQHDGKloXedWPg2WiuIK-1" edge="1">
          <mxGeometry relative="1" as="geometry">
            <mxPoint x="700" y="310" as="sourcePoint" />
            <mxPoint x="670" y="318" as="targetPoint" />
          </mxGeometry>
        </mxCell>
        <mxCell id="GQHDGKloXedWPg2WiuIK-69" value="" style="endArrow=none;html=1;rounded=0;exitX=0.59;exitY=0.999;exitDx=0;exitDy=0;entryX=0;entryY=0;entryDx=0;entryDy=0;exitPerimeter=0;" parent="1" source="GQHDGKloXedWPg2WiuIK-4" target="GQHDGKloXedWPg2WiuIK-1" edge="1">
          <mxGeometry relative="1" as="geometry">
            <mxPoint x="710" y="320" as="sourcePoint" />
            <mxPoint x="715" y="350" as="targetPoint" />
          </mxGeometry>
        </mxCell>
        <mxCell id="GQHDGKloXedWPg2WiuIK-70" value="" style="endArrow=none;html=1;rounded=0;exitX=0.5;exitY=1;exitDx=0;exitDy=0;" parent="1" source="GQHDGKloXedWPg2WiuIK-7" edge="1">
          <mxGeometry relative="1" as="geometry">
            <mxPoint x="792" y="242.5" as="sourcePoint" />
            <mxPoint x="710" y="320" as="targetPoint" />
            <Array as="points">
              <mxPoint x="720" y="320" />
            </Array>
          </mxGeometry>
        </mxCell>
        <mxCell id="GQHDGKloXedWPg2WiuIK-71" value="" style="endArrow=none;html=1;rounded=0;exitX=0;exitY=1;exitDx=0;exitDy=0;entryX=0.808;entryY=-0.002;entryDx=0;entryDy=0;entryPerimeter=0;" parent="1" source="GQHDGKloXedWPg2WiuIK-11" target="GQHDGKloXedWPg2WiuIK-1" edge="1">
          <mxGeometry relative="1" as="geometry">
            <mxPoint x="710" y="320" as="sourcePoint" />
            <mxPoint x="705" y="340" as="targetPoint" />
            <Array as="points">
              <mxPoint x="710" y="280" />
            </Array>
          </mxGeometry>
        </mxCell>
        <mxCell id="GQHDGKloXedWPg2WiuIK-72" value="" style="endArrow=none;html=1;rounded=0;exitX=0.5;exitY=1;exitDx=0;exitDy=0;entryX=0.5;entryY=0;entryDx=0;entryDy=0;" parent="1" source="GQHDGKloXedWPg2WiuIK-9" target="GQHDGKloXedWPg2WiuIK-1" edge="1">
          <mxGeometry relative="1" as="geometry">
            <mxPoint x="516" y="225" as="sourcePoint" />
            <mxPoint x="494" y="160" as="targetPoint" />
            <Array as="points">
              <mxPoint x="580" y="240" />
              <mxPoint x="630" y="280" />
            </Array>
          </mxGeometry>
        </mxCell>
        <mxCell id="GQHDGKloXedWPg2WiuIK-73" value="" style="endArrow=none;html=1;rounded=0;entryX=0.607;entryY=0.035;entryDx=0;entryDy=0;exitX=0.5;exitY=1;exitDx=0;exitDy=0;entryPerimeter=0;" parent="1" source="GQHDGKloXedWPg2WiuIK-8" target="GQHDGKloXedWPg2WiuIK-1" edge="1">
          <mxGeometry relative="1" as="geometry">
            <mxPoint x="590" y="210" as="sourcePoint" />
            <mxPoint x="534" y="280" as="targetPoint" />
            <Array as="points">
              <mxPoint x="600" y="230" />
              <mxPoint x="640" y="280" />
            </Array>
          </mxGeometry>
        </mxCell>
        <mxCell id="GQHDGKloXedWPg2WiuIK-74" value="" style="endArrow=none;html=1;rounded=0;entryX=0.584;entryY=-0.009;entryDx=0;entryDy=0;exitX=0.5;exitY=1;exitDx=0;exitDy=0;entryPerimeter=0;" parent="1" source="GQHDGKloXedWPg2WiuIK-10" target="GQHDGKloXedWPg2WiuIK-1" edge="1">
          <mxGeometry relative="1" as="geometry">
            <mxPoint x="605" y="210" as="sourcePoint" />
            <mxPoint x="617" y="226" as="targetPoint" />
            <Array as="points">
              <mxPoint x="550" y="230" />
              <mxPoint x="580" y="230" />
              <mxPoint x="610" y="250" />
            </Array>
          </mxGeometry>
        </mxCell>
        <mxCell id="GQHDGKloXedWPg2WiuIK-75" value="" style="endArrow=none;html=1;rounded=0;exitX=0.666;exitY=0.949;exitDx=0;exitDy=0;entryX=0.5;entryY=0;entryDx=0;entryDy=0;exitPerimeter=0;" parent="1" source="GQHDGKloXedWPg2WiuIK-47" target="GQHDGKloXedWPg2WiuIK-1" edge="1">
          <mxGeometry relative="1" as="geometry">
            <mxPoint x="563" y="212" as="sourcePoint" />
            <mxPoint x="560" y="248" as="targetPoint" />
            <Array as="points">
              <mxPoint x="620" y="280" />
            </Array>
          </mxGeometry>
        </mxCell>
        <mxCell id="GQHDGKloXedWPg2WiuIK-76" value="" style="endArrow=none;html=1;rounded=0;exitX=0;exitY=1;exitDx=0;exitDy=0;entryX=0.836;entryY=0.002;entryDx=0;entryDy=0;entryPerimeter=0;" parent="1" source="GQHDGKloXedWPg2WiuIK-6" target="GQHDGKloXedWPg2WiuIK-1" edge="1">
          <mxGeometry relative="1" as="geometry">
            <mxPoint x="828" y="268" as="sourcePoint" />
            <mxPoint x="690" y="320" as="targetPoint" />
            <Array as="points">
              <mxPoint x="790" y="280" />
            </Array>
          </mxGeometry>
        </mxCell>
        <mxCell id="GQHDGKloXedWPg2WiuIK-77" value="" style="endArrow=none;html=1;rounded=0;exitX=0;exitY=1;exitDx=0;exitDy=0;" parent="1" source="GQHDGKloXedWPg2WiuIK-3" edge="1">
          <mxGeometry relative="1" as="geometry">
            <mxPoint x="468" y="300" as="sourcePoint" />
            <mxPoint x="600" y="230" as="targetPoint" />
          </mxGeometry>
        </mxCell>
        <mxCell id="GQHDGKloXedWPg2WiuIK-78" value="" style="endArrow=none;html=1;rounded=0;exitX=0.5;exitY=1;exitDx=0;exitDy=0;entryX=0.75;entryY=0;entryDx=0;entryDy=0;" parent="1" source="GQHDGKloXedWPg2WiuIK-48" target="GQHDGKloXedWPg2WiuIK-1" edge="1">
          <mxGeometry relative="1" as="geometry">
            <mxPoint x="750.0016864833897" y="207.40502020055905" as="sourcePoint" />
            <mxPoint x="719" y="227.59" as="targetPoint" />
            <Array as="points">
              <mxPoint x="710" y="220" />
            </Array>
          </mxGeometry>
        </mxCell>
        <mxCell id="GQHDGKloXedWPg2WiuIK-81" value="id" style="ellipse;whiteSpace=wrap;html=1;align=center;fontStyle=4;" parent="1" vertex="1">
          <mxGeometry x="-20" y="265" width="50" height="30" as="geometry" />
        </mxCell>
        <mxCell id="GQHDGKloXedWPg2WiuIK-82" value="name" style="ellipse;whiteSpace=wrap;html=1;align=center;" parent="1" vertex="1">
          <mxGeometry x="30" y="285" width="60" height="30" as="geometry" />
        </mxCell>
        <mxCell id="GQHDGKloXedWPg2WiuIK-83" value="" style="endArrow=none;html=1;rounded=0;exitX=0.5;exitY=1;exitDx=0;exitDy=0;entryX=0;entryY=0;entryDx=0;entryDy=0;" parent="1" source="GQHDGKloXedWPg2WiuIK-81" target="GQHDGKloXedWPg2WiuIK-51" edge="1">
          <mxGeometry relative="1" as="geometry">
            <mxPoint x="40" y="310" as="sourcePoint" />
            <mxPoint x="200" y="310" as="targetPoint" />
          </mxGeometry>
        </mxCell>
        <mxCell id="GQHDGKloXedWPg2WiuIK-84" value="" style="endArrow=none;html=1;rounded=0;exitX=0.5;exitY=1;exitDx=0;exitDy=0;entryX=0.25;entryY=0;entryDx=0;entryDy=0;" parent="1" source="GQHDGKloXedWPg2WiuIK-82" target="GQHDGKloXedWPg2WiuIK-51" edge="1">
          <mxGeometry relative="1" as="geometry">
            <mxPoint x="134.84" y="300" as="sourcePoint" />
            <mxPoint x="134.84" y="325" as="targetPoint" />
          </mxGeometry>
        </mxCell>
        <mxCell id="GQHDGKloXedWPg2WiuIK-85" value="character" style="ellipse;whiteSpace=wrap;html=1;align=center;" parent="1" vertex="1">
          <mxGeometry x="965" y="475" width="75" height="30" as="geometry" />
        </mxCell>
        <mxCell id="GQHDGKloXedWPg2WiuIK-86" value="iso" style="ellipse;whiteSpace=wrap;html=1;align=center;fontStyle=4;" parent="1" vertex="1">
          <mxGeometry x="814" y="583.75" width="60" height="30" as="geometry" />
        </mxCell>
        <mxCell id="GQHDGKloXedWPg2WiuIK-87" value="cast_id" style="ellipse;whiteSpace=wrap;html=1;align=center;fontStyle=4;" parent="1" vertex="1">
          <mxGeometry x="980" y="510" width="60" height="30" as="geometry" />
        </mxCell>
        <mxCell id="GQHDGKloXedWPg2WiuIK-88" value="" style="endArrow=none;html=1;rounded=0;entryX=0;entryY=0.5;entryDx=0;entryDy=0;exitX=1;exitY=0.5;exitDx=0;exitDy=0;" parent="1" source="GQHDGKloXedWPg2WiuIK-87" target="GQHDGKloXedWPg2WiuIK-62" edge="1">
          <mxGeometry relative="1" as="geometry">
            <mxPoint x="1070" y="541" as="sourcePoint" />
            <mxPoint x="1110.0000000000005" y="581.25" as="targetPoint" />
          </mxGeometry>
        </mxCell>
        <mxCell id="GQHDGKloXedWPg2WiuIK-89" value="credit_id" style="ellipse;whiteSpace=wrap;html=1;align=center;" parent="1" vertex="1">
          <mxGeometry x="1050" y="503.75" width="70" height="35" as="geometry" />
        </mxCell>
        <mxCell id="GQHDGKloXedWPg2WiuIK-90" value="gender" style="ellipse;whiteSpace=wrap;html=1;align=center;" parent="1" vertex="1">
          <mxGeometry x="1220" y="581.25" width="59" height="30" as="geometry" />
        </mxCell>
        <mxCell id="GQHDGKloXedWPg2WiuIK-91" value="name" style="ellipse;whiteSpace=wrap;html=1;align=center;" parent="1" vertex="1">
          <mxGeometry x="1290" y="582.5" width="60" height="22.5" as="geometry" />
        </mxCell>
        <mxCell id="GQHDGKloXedWPg2WiuIK-92" value="order" style="ellipse;whiteSpace=wrap;html=1;align=center;" parent="1" vertex="1">
          <mxGeometry x="1011" y="450" width="49" height="25" as="geometry" />
        </mxCell>
        <mxCell id="GQHDGKloXedWPg2WiuIK-93" value="profile_path" style="ellipse;whiteSpace=wrap;html=1;align=center;" parent="1" vertex="1">
          <mxGeometry x="1270" y="545" width="80" height="32.5" as="geometry" />
        </mxCell>
        <mxCell id="GQHDGKloXedWPg2WiuIK-94" value="" style="endArrow=none;html=1;rounded=0;exitX=1;exitY=1;exitDx=0;exitDy=0;entryX=0;entryY=0.5;entryDx=0;entryDy=0;" parent="1" source="GQHDGKloXedWPg2WiuIK-92" target="GQHDGKloXedWPg2WiuIK-62" edge="1">
          <mxGeometry relative="1" as="geometry">
            <mxPoint x="1121" y="585" as="sourcePoint" />
            <mxPoint x="1130" y="595" as="targetPoint" />
            <Array as="points" />
          </mxGeometry>
        </mxCell>
        <mxCell id="GQHDGKloXedWPg2WiuIK-98" value="" style="endArrow=none;html=1;rounded=0;exitX=0;exitY=1;exitDx=0;exitDy=0;entryX=1;entryY=0;entryDx=0;entryDy=0;" parent="1" source="GQHDGKloXedWPg2WiuIK-93" target="GQHDGKloXedWPg2WiuIK-52" edge="1">
          <mxGeometry relative="1" as="geometry">
            <mxPoint x="1168" y="560" as="sourcePoint" />
            <mxPoint x="1215" y="605" as="targetPoint" />
          </mxGeometry>
        </mxCell>
        <mxCell id="GQHDGKloXedWPg2WiuIK-99" value="" style="endArrow=none;html=1;rounded=0;exitX=0.5;exitY=1;exitDx=0;exitDy=0;entryX=1;entryY=0;entryDx=0;entryDy=0;" parent="1" source="GQHDGKloXedWPg2WiuIK-91" target="GQHDGKloXedWPg2WiuIK-52" edge="1">
          <mxGeometry relative="1" as="geometry">
            <mxPoint x="1178" y="570" as="sourcePoint" />
            <mxPoint x="1225" y="615" as="targetPoint" />
          </mxGeometry>
        </mxCell>
        <mxCell id="GQHDGKloXedWPg2WiuIK-100" value="gender" style="ellipse;whiteSpace=wrap;html=1;align=center;" parent="1" vertex="1">
          <mxGeometry x="599" y="583.75" width="57" height="23.75" as="geometry" />
        </mxCell>
        <mxCell id="GQHDGKloXedWPg2WiuIK-101" value="job" style="ellipse;whiteSpace=wrap;html=1;align=center;" parent="1" vertex="1">
          <mxGeometry x="567.5" y="410" width="40" height="30" as="geometry" />
        </mxCell>
        <mxCell id="GQHDGKloXedWPg2WiuIK-102" value="name" style="ellipse;whiteSpace=wrap;html=1;align=center;" parent="1" vertex="1">
          <mxGeometry x="470" y="521.25" width="42.5" height="35" as="geometry" />
        </mxCell>
        <mxCell id="GQHDGKloXedWPg2WiuIK-103" value="profile_path" style="ellipse;whiteSpace=wrap;html=1;align=center;" parent="1" vertex="1">
          <mxGeometry x="420" y="570" width="75" height="26.88" as="geometry" />
        </mxCell>
        <mxCell id="GQHDGKloXedWPg2WiuIK-104" value="" style="endArrow=none;html=1;rounded=0;exitX=0.5;exitY=1;exitDx=0;exitDy=0;entryX=0.931;entryY=0.008;entryDx=0;entryDy=0;entryPerimeter=0;" parent="1" source="GQHDGKloXedWPg2WiuIK-100" target="GQHDGKloXedWPg2WiuIK-20" edge="1">
          <mxGeometry relative="1" as="geometry">
            <mxPoint x="562" y="565" as="sourcePoint" />
            <mxPoint x="630" y="630" as="targetPoint" />
          </mxGeometry>
        </mxCell>
        <mxCell id="GQHDGKloXedWPg2WiuIK-105" value="" style="endArrow=none;html=1;rounded=0;exitX=1;exitY=1;exitDx=0;exitDy=0;entryX=0;entryY=0;entryDx=0;entryDy=0;" parent="1" source="GQHDGKloXedWPg2WiuIK-101" target="GQHDGKloXedWPg2WiuIK-21" edge="1">
          <mxGeometry relative="1" as="geometry">
            <mxPoint x="572" y="575" as="sourcePoint" />
            <mxPoint x="567" y="646" as="targetPoint" />
          </mxGeometry>
        </mxCell>
        <mxCell id="GQHDGKloXedWPg2WiuIK-106" value="" style="endArrow=none;html=1;rounded=0;exitX=0.5;exitY=1;exitDx=0;exitDy=0;entryX=0;entryY=0;entryDx=0;entryDy=0;" parent="1" source="GQHDGKloXedWPg2WiuIK-102" target="GQHDGKloXedWPg2WiuIK-20" edge="1">
          <mxGeometry relative="1" as="geometry">
            <mxPoint x="582" y="585" as="sourcePoint" />
            <mxPoint x="577" y="656" as="targetPoint" />
            <Array as="points">
              <mxPoint x="500" y="580" />
              <mxPoint x="491" y="600" />
            </Array>
          </mxGeometry>
        </mxCell>
        <mxCell id="GQHDGKloXedWPg2WiuIK-107" value="" style="endArrow=none;html=1;rounded=0;exitX=0.5;exitY=1;exitDx=0;exitDy=0;entryX=0;entryY=0;entryDx=0;entryDy=0;" parent="1" source="GQHDGKloXedWPg2WiuIK-103" target="GQHDGKloXedWPg2WiuIK-20" edge="1">
          <mxGeometry relative="1" as="geometry">
            <mxPoint x="552" y="592" as="sourcePoint" />
            <mxPoint x="548" y="635" as="targetPoint" />
          </mxGeometry>
        </mxCell>
        <mxCell id="GQHDGKloXedWPg2WiuIK-109" value="rating" style="ellipse;whiteSpace=wrap;html=1;align=center;" parent="1" vertex="1">
          <mxGeometry x="120" y="435" width="60" height="30" as="geometry" />
        </mxCell>
        <mxCell id="GQHDGKloXedWPg2WiuIK-110" value="timestamp" style="ellipse;whiteSpace=wrap;html=1;align=center;" parent="1" vertex="1">
          <mxGeometry x="90" y="470" width="70" height="30" as="geometry" />
        </mxCell>
        <mxCell id="GQHDGKloXedWPg2WiuIK-111" value="" style="endArrow=none;html=1;rounded=0;exitX=1;exitY=0.5;exitDx=0;exitDy=0;entryX=0;entryY=0.5;entryDx=0;entryDy=0;" parent="1" source="GQHDGKloXedWPg2WiuIK-110" target="GQHDGKloXedWPg2WiuIK-60" edge="1">
          <mxGeometry relative="1" as="geometry">
            <mxPoint x="190" y="570" as="sourcePoint" />
            <mxPoint x="350" y="570" as="targetPoint" />
          </mxGeometry>
        </mxCell>
        <mxCell id="GQHDGKloXedWPg2WiuIK-112" value="" style="endArrow=none;html=1;rounded=0;exitX=1;exitY=0.5;exitDx=0;exitDy=0;entryX=0;entryY=0.5;entryDx=0;entryDy=0;" parent="1" source="GQHDGKloXedWPg2WiuIK-109" target="GQHDGKloXedWPg2WiuIK-60" edge="1">
          <mxGeometry relative="1" as="geometry">
            <mxPoint x="190" y="570" as="sourcePoint" />
            <mxPoint x="350" y="570" as="targetPoint" />
          </mxGeometry>
        </mxCell>
        <mxCell id="GQHDGKloXedWPg2WiuIK-113" value="" style="endArrow=none;html=1;rounded=0;exitX=0.5;exitY=1;exitDx=0;exitDy=0;entryX=0.25;entryY=0;entryDx=0;entryDy=0;" parent="1" source="kyz5QwAfoY5FNnczMksz-1" target="GQHDGKloXedWPg2WiuIK-53" edge="1">
          <mxGeometry relative="1" as="geometry">
            <mxPoint x="135" y="596.8800000000001" as="sourcePoint" />
            <mxPoint x="350" y="570" as="targetPoint" />
          </mxGeometry>
        </mxCell>
        <mxCell id="GQHDGKloXedWPg2WiuIK-114" value="genres" style="whiteSpace=wrap;html=1;align=center;" parent="1" vertex="1">
          <mxGeometry x="-180" y="625" width="100" height="40" as="geometry" />
        </mxCell>
        <mxCell id="GQHDGKloXedWPg2WiuIK-115" value="Tiene" style="shape=rhombus;perimeter=rhombusPerimeter;whiteSpace=wrap;html=1;align=center;" parent="1" vertex="1">
          <mxGeometry x="-150" y="450" width="110" height="50" as="geometry" />
        </mxCell>
        <mxCell id="GQHDGKloXedWPg2WiuIK-116" value="" style="endArrow=none;html=1;rounded=0;exitX=0.5;exitY=1;exitDx=0;exitDy=0;entryX=0.5;entryY=0;entryDx=0;entryDy=0;" parent="1" source="GQHDGKloXedWPg2WiuIK-1" target="GQHDGKloXedWPg2WiuIK-115" edge="1">
          <mxGeometry relative="1" as="geometry">
            <mxPoint x="430" y="540" as="sourcePoint" />
            <mxPoint x="590" y="540" as="targetPoint" />
          </mxGeometry>
        </mxCell>
        <mxCell id="GQHDGKloXedWPg2WiuIK-117" value="" style="endArrow=none;html=1;rounded=0;exitX=0.5;exitY=1;exitDx=0;exitDy=0;entryX=0.5;entryY=0;entryDx=0;entryDy=0;" parent="1" source="GQHDGKloXedWPg2WiuIK-115" target="GQHDGKloXedWPg2WiuIK-114" edge="1">
          <mxGeometry relative="1" as="geometry">
            <mxPoint x="430" y="540" as="sourcePoint" />
            <mxPoint x="590" y="540" as="targetPoint" />
          </mxGeometry>
        </mxCell>
        <mxCell id="GQHDGKloXedWPg2WiuIK-118" value="languages" style="whiteSpace=wrap;html=1;align=center;" parent="1" vertex="1">
          <mxGeometry x="1700" y="625" width="103.5" height="40" as="geometry" />
        </mxCell>
        <mxCell id="GQHDGKloXedWPg2WiuIK-119" value="traducida" style="shape=rhombus;perimeter=rhombusPerimeter;whiteSpace=wrap;html=1;align=center;" parent="1" vertex="1">
          <mxGeometry x="1700" y="445" width="110" height="50" as="geometry" />
        </mxCell>
        <mxCell id="GQHDGKloXedWPg2WiuIK-120" value="" style="endArrow=none;html=1;rounded=0;entryX=0.5;entryY=0;entryDx=0;entryDy=0;exitX=0.5;exitY=1;exitDx=0;exitDy=0;" parent="1" source="GQHDGKloXedWPg2WiuIK-1" target="GQHDGKloXedWPg2WiuIK-119" edge="1">
          <mxGeometry relative="1" as="geometry">
            <mxPoint x="1160" y="500" as="sourcePoint" />
            <mxPoint x="1320" y="500" as="targetPoint" />
          </mxGeometry>
        </mxCell>
        <mxCell id="GQHDGKloXedWPg2WiuIK-121" value="" style="endArrow=none;html=1;rounded=0;entryX=0.5;entryY=1;entryDx=0;entryDy=0;exitX=0.5;exitY=0;exitDx=0;exitDy=0;" parent="1" source="GQHDGKloXedWPg2WiuIK-118" target="GQHDGKloXedWPg2WiuIK-119" edge="1">
          <mxGeometry relative="1" as="geometry">
            <mxPoint x="1160" y="500" as="sourcePoint" />
            <mxPoint x="1320" y="500" as="targetPoint" />
          </mxGeometry>
        </mxCell>
        <mxCell id="GQHDGKloXedWPg2WiuIK-122" value="id" style="ellipse;whiteSpace=wrap;html=1;align=center;fontStyle=4;" parent="1" vertex="1">
          <mxGeometry x="-200" y="580" width="40" height="27.5" as="geometry" />
        </mxCell>
        <mxCell id="GQHDGKloXedWPg2WiuIK-123" value="name" style="ellipse;whiteSpace=wrap;html=1;align=center;" parent="1" vertex="1">
          <mxGeometry x="-110" y="571.88" width="70" height="30" as="geometry" />
        </mxCell>
        <mxCell id="GQHDGKloXedWPg2WiuIK-124" value="" style="endArrow=none;html=1;rounded=0;exitX=0.5;exitY=1;exitDx=0;exitDy=0;entryX=0.25;entryY=0;entryDx=0;entryDy=0;" parent="1" source="GQHDGKloXedWPg2WiuIK-122" target="GQHDGKloXedWPg2WiuIK-114" edge="1">
          <mxGeometry relative="1" as="geometry">
            <mxPoint x="-120" y="540" as="sourcePoint" />
            <mxPoint x="40" y="540" as="targetPoint" />
          </mxGeometry>
        </mxCell>
        <mxCell id="GQHDGKloXedWPg2WiuIK-125" value="" style="endArrow=none;html=1;rounded=0;exitX=0.5;exitY=1;exitDx=0;exitDy=0;entryX=0.75;entryY=0;entryDx=0;entryDy=0;" parent="1" source="GQHDGKloXedWPg2WiuIK-123" target="GQHDGKloXedWPg2WiuIK-114" edge="1">
          <mxGeometry relative="1" as="geometry">
            <mxPoint x="-120" y="540" as="sourcePoint" />
            <mxPoint x="40" y="540" as="targetPoint" />
          </mxGeometry>
        </mxCell>
        <mxCell id="GQHDGKloXedWPg2WiuIK-126" value="name" style="ellipse;whiteSpace=wrap;html=1;align=center;" parent="1" vertex="1">
          <mxGeometry x="1700" y="586.25" width="50" height="30" as="geometry" />
        </mxCell>
        <mxCell id="GQHDGKloXedWPg2WiuIK-127" value="id" style="ellipse;whiteSpace=wrap;html=1;align=center;fontStyle=4;" parent="1" vertex="1">
          <mxGeometry x="1170" y="592.5" width="40" height="20" as="geometry" />
        </mxCell>
        <mxCell id="GQHDGKloXedWPg2WiuIK-128" value="" style="endArrow=none;html=1;rounded=0;exitX=0.5;exitY=1;exitDx=0;exitDy=0;entryX=0.25;entryY=0;entryDx=0;entryDy=0;" parent="1" source="GQHDGKloXedWPg2WiuIK-127" target="GQHDGKloXedWPg2WiuIK-52" edge="1">
          <mxGeometry relative="1" as="geometry">
            <mxPoint x="1110" y="630" as="sourcePoint" />
            <mxPoint x="1270" y="630" as="targetPoint" />
          </mxGeometry>
        </mxCell>
        <mxCell id="GQHDGKloXedWPg2WiuIK-129" value="iso" style="ellipse;whiteSpace=wrap;html=1;align=center;" parent="1" vertex="1">
          <mxGeometry x="1773.5" y="591.25" width="30" height="20" as="geometry" />
        </mxCell>
        <mxCell id="GQHDGKloXedWPg2WiuIK-130" value="" style="endArrow=none;html=1;rounded=0;exitX=0.5;exitY=1;exitDx=0;exitDy=0;entryX=0.25;entryY=0;entryDx=0;entryDy=0;" parent="1" source="GQHDGKloXedWPg2WiuIK-126" target="GQHDGKloXedWPg2WiuIK-118" edge="1">
          <mxGeometry relative="1" as="geometry">
            <mxPoint x="1450" y="630" as="sourcePoint" />
            <mxPoint x="1610" y="630" as="targetPoint" />
          </mxGeometry>
        </mxCell>
        <mxCell id="GQHDGKloXedWPg2WiuIK-131" value="" style="endArrow=none;html=1;rounded=0;exitX=0.5;exitY=1;exitDx=0;exitDy=0;entryX=0.75;entryY=0;entryDx=0;entryDy=0;" parent="1" source="GQHDGKloXedWPg2WiuIK-129" target="GQHDGKloXedWPg2WiuIK-118" edge="1">
          <mxGeometry relative="1" as="geometry">
            <mxPoint x="1450" y="630" as="sourcePoint" />
            <mxPoint x="1610" y="630" as="targetPoint" />
          </mxGeometry>
        </mxCell>
        <mxCell id="GQHDGKloXedWPg2WiuIK-132" value="1: 1" style="text;strokeColor=none;fillColor=none;spacingLeft=4;spacingRight=4;overflow=hidden;rotatable=0;points=[[0,0.5],[1,0.5]];portConstraint=eastwest;fontSize=12;whiteSpace=wrap;html=1;" parent="1" vertex="1">
          <mxGeometry x="170" y="335" width="30" height="20" as="geometry" />
        </mxCell>
        <mxCell id="GQHDGKloXedWPg2WiuIK-133" value="1: n" style="text;strokeColor=none;fillColor=none;spacingLeft=4;spacingRight=4;overflow=hidden;rotatable=0;points=[[0,0.5],[1,0.5]];portConstraint=eastwest;fontSize=12;whiteSpace=wrap;html=1;" parent="1" vertex="1">
          <mxGeometry x="577.5" y="335" width="30" height="20" as="geometry" />
        </mxCell>
        <mxCell id="GQHDGKloXedWPg2WiuIK-134" value="1 : n" style="text;strokeColor=none;fillColor=none;spacingLeft=4;spacingRight=4;overflow=hidden;rotatable=0;points=[[0,0.5],[1,0.5]];portConstraint=eastwest;fontSize=12;whiteSpace=wrap;html=1;" parent="1" vertex="1">
          <mxGeometry x="300" y="355" width="40" height="30" as="geometry" />
        </mxCell>
        <mxCell id="GQHDGKloXedWPg2WiuIK-135" value="1: n" style="text;strokeColor=none;fillColor=none;spacingLeft=4;spacingRight=4;overflow=hidden;rotatable=0;points=[[0,0.5],[1,0.5]];portConstraint=eastwest;fontSize=12;whiteSpace=wrap;html=1;" parent="1" vertex="1">
          <mxGeometry x="1206" y="605" width="30" height="20" as="geometry" />
        </mxCell>
        <mxCell id="GQHDGKloXedWPg2WiuIK-136" value="1: n" style="text;strokeColor=none;fillColor=none;spacingLeft=4;spacingRight=4;overflow=hidden;rotatable=0;points=[[0,0.5],[1,0.5]];portConstraint=eastwest;fontSize=12;whiteSpace=wrap;html=1;" parent="1" vertex="1">
          <mxGeometry x="700" y="365" width="30" height="20" as="geometry" />
        </mxCell>
        <mxCell id="GQHDGKloXedWPg2WiuIK-137" value="n : n" style="text;strokeColor=none;fillColor=none;spacingLeft=4;spacingRight=4;overflow=hidden;rotatable=0;points=[[0,0.5],[1,0.5]];portConstraint=eastwest;fontSize=12;whiteSpace=wrap;html=1;" parent="1" vertex="1">
          <mxGeometry x="1169" y="455" width="40" height="30" as="geometry" />
        </mxCell>
        <mxCell id="GQHDGKloXedWPg2WiuIK-138" value="1: n" style="text;strokeColor=none;fillColor=none;spacingLeft=4;spacingRight=4;overflow=hidden;rotatable=0;points=[[0,0.5],[1,0.5]];portConstraint=eastwest;fontSize=12;whiteSpace=wrap;html=1;" parent="1" vertex="1">
          <mxGeometry x="1750" y="605" width="30" height="20" as="geometry" />
        </mxCell>
        <mxCell id="GQHDGKloXedWPg2WiuIK-139" value="1: n" style="text;strokeColor=none;fillColor=none;spacingLeft=4;spacingRight=4;overflow=hidden;rotatable=0;points=[[0,0.5],[1,0.5]];portConstraint=eastwest;fontSize=12;whiteSpace=wrap;html=1;" parent="1" vertex="1">
          <mxGeometry x="764" y="365" width="30" height="20" as="geometry" />
        </mxCell>
        <mxCell id="GQHDGKloXedWPg2WiuIK-140" value="n : n" style="text;strokeColor=none;fillColor=none;spacingLeft=4;spacingRight=4;overflow=hidden;rotatable=0;points=[[0,0.5],[1,0.5]];portConstraint=eastwest;fontSize=12;whiteSpace=wrap;html=1;" parent="1" vertex="1">
          <mxGeometry x="1810" y="455" width="40" height="30" as="geometry" />
        </mxCell>
        <mxCell id="GQHDGKloXedWPg2WiuIK-141" value="&lt;div&gt;1:n&lt;/div&gt;" style="text;strokeColor=none;fillColor=none;spacingLeft=4;spacingRight=4;overflow=hidden;rotatable=0;points=[[0,0.5],[1,0.5]];portConstraint=eastwest;fontSize=12;whiteSpace=wrap;html=1;" parent="1" vertex="1">
          <mxGeometry x="602.5" y="360" width="30" height="20" as="geometry" />
        </mxCell>
        <mxCell id="GQHDGKloXedWPg2WiuIK-142" value="1: n" style="text;strokeColor=none;fillColor=none;spacingLeft=4;spacingRight=4;overflow=hidden;rotatable=0;points=[[0,0.5],[1,0.5]];portConstraint=eastwest;fontSize=12;whiteSpace=wrap;html=1;" parent="1" vertex="1">
          <mxGeometry x="200" y="603.75" width="30" height="20" as="geometry" />
        </mxCell>
        <mxCell id="GQHDGKloXedWPg2WiuIK-143" value="n: n" style="text;strokeColor=none;fillColor=none;spacingLeft=4;spacingRight=4;overflow=hidden;rotatable=0;points=[[0,0.5],[1,0.5]];portConstraint=eastwest;fontSize=12;whiteSpace=wrap;html=1;" parent="1" vertex="1">
          <mxGeometry x="290" y="445" width="30" height="20" as="geometry" />
        </mxCell>
        <mxCell id="GQHDGKloXedWPg2WiuIK-144" value="1: n" style="text;strokeColor=none;fillColor=none;spacingLeft=4;spacingRight=4;overflow=hidden;rotatable=0;points=[[0,0.5],[1,0.5]];portConstraint=eastwest;fontSize=12;whiteSpace=wrap;html=1;" parent="1" vertex="1">
          <mxGeometry x="530" y="355" width="30" height="20" as="geometry" />
        </mxCell>
        <mxCell id="GQHDGKloXedWPg2WiuIK-145" value="1: n" style="text;strokeColor=none;fillColor=none;spacingLeft=4;spacingRight=4;overflow=hidden;rotatable=0;points=[[0,0.5],[1,0.5]];portConstraint=eastwest;fontSize=12;whiteSpace=wrap;html=1;" parent="1" vertex="1">
          <mxGeometry x="-160" y="602.5" width="30" height="20" as="geometry" />
        </mxCell>
        <mxCell id="GQHDGKloXedWPg2WiuIK-146" value="n : n" style="text;strokeColor=none;fillColor=none;spacingLeft=4;spacingRight=4;overflow=hidden;rotatable=0;points=[[0,0.5],[1,0.5]];portConstraint=eastwest;fontSize=12;whiteSpace=wrap;html=1;" parent="1" vertex="1">
          <mxGeometry x="-40" y="460" width="40" height="30" as="geometry" />
        </mxCell>
        <mxCell id="GQHDGKloXedWPg2WiuIK-147" value="poster_path" style="ellipse;whiteSpace=wrap;html=1;align=center;" parent="1" vertex="1">
          <mxGeometry x="110" y="272.5" width="80" height="37.5" as="geometry" />
        </mxCell>
        <mxCell id="GQHDGKloXedWPg2WiuIK-148" value="" style="endArrow=none;html=1;rounded=0;exitX=0.5;exitY=1;exitDx=0;exitDy=0;entryX=0.75;entryY=0;entryDx=0;entryDy=0;" parent="1" source="GQHDGKloXedWPg2WiuIK-147" target="GQHDGKloXedWPg2WiuIK-51" edge="1">
          <mxGeometry relative="1" as="geometry">
            <mxPoint x="95" y="295" as="sourcePoint" />
            <mxPoint x="110" y="330" as="targetPoint" />
          </mxGeometry>
        </mxCell>
        <mxCell id="GQHDGKloXedWPg2WiuIK-149" value="backdrop_path" style="ellipse;whiteSpace=wrap;html=1;align=center;" parent="1" vertex="1">
          <mxGeometry x="60" y="242.5" width="90" height="30" as="geometry" />
        </mxCell>
        <mxCell id="GQHDGKloXedWPg2WiuIK-150" value="" style="endArrow=none;html=1;rounded=0;exitX=0.5;exitY=1;exitDx=0;exitDy=0;entryX=0.5;entryY=0;entryDx=0;entryDy=0;" parent="1" source="GQHDGKloXedWPg2WiuIK-149" target="GQHDGKloXedWPg2WiuIK-51" edge="1">
          <mxGeometry relative="1" as="geometry">
            <mxPoint x="15" y="305" as="sourcePoint" />
            <mxPoint x="40" y="330" as="targetPoint" />
          </mxGeometry>
        </mxCell>
        <mxCell id="GQHDGKloXedWPg2WiuIK-151" value="keywords" style="whiteSpace=wrap;html=1;align=center;" parent="1" vertex="1">
          <mxGeometry x="1480" y="625" width="103.5" height="40" as="geometry" />
        </mxCell>
        <mxCell id="GQHDGKloXedWPg2WiuIK-152" value="" style="endArrow=none;html=1;rounded=0;exitX=0.5;exitY=0;exitDx=0;exitDy=0;entryX=0.5;entryY=1;entryDx=0;entryDy=0;" parent="1" source="GQHDGKloXedWPg2WiuIK-151" target="GQHDGKloXedWPg2WiuIK-153" edge="1">
          <mxGeometry relative="1" as="geometry">
            <mxPoint x="1530" y="625" as="sourcePoint" />
            <mxPoint x="1533" y="520" as="targetPoint" />
          </mxGeometry>
        </mxCell>
        <mxCell id="GQHDGKloXedWPg2WiuIK-153" value="Tiene" style="shape=rhombus;perimeter=rhombusPerimeter;whiteSpace=wrap;html=1;align=center;" parent="1" vertex="1">
          <mxGeometry x="1476.75" y="471.25" width="110" height="50" as="geometry" />
        </mxCell>
        <mxCell id="GQHDGKloXedWPg2WiuIK-154" value="" style="endArrow=none;html=1;rounded=0;entryX=0.5;entryY=0;entryDx=0;entryDy=0;exitX=0.5;exitY=1;exitDx=0;exitDy=0;" parent="1" source="GQHDGKloXedWPg2WiuIK-1" target="GQHDGKloXedWPg2WiuIK-153" edge="1">
          <mxGeometry relative="1" as="geometry">
            <mxPoint x="642.5" y="395" as="sourcePoint" />
            <mxPoint x="1737.5" y="480" as="targetPoint" />
          </mxGeometry>
        </mxCell>
        <mxCell id="GQHDGKloXedWPg2WiuIK-155" value="name" style="ellipse;whiteSpace=wrap;html=1;align=center;" parent="1" vertex="1">
          <mxGeometry x="1470" y="581.25" width="50" height="30" as="geometry" />
        </mxCell>
        <mxCell id="GQHDGKloXedWPg2WiuIK-156" value="id" style="ellipse;whiteSpace=wrap;html=1;align=center;" parent="1" vertex="1">
          <mxGeometry x="1553.5" y="591.25" width="30" height="20" as="geometry" />
        </mxCell>
        <mxCell id="GQHDGKloXedWPg2WiuIK-157" value="" style="endArrow=none;html=1;rounded=0;exitX=0.75;exitY=0;exitDx=0;exitDy=0;entryX=0.5;entryY=1;entryDx=0;entryDy=0;" parent="1" source="GQHDGKloXedWPg2WiuIK-151" target="GQHDGKloXedWPg2WiuIK-156" edge="1">
          <mxGeometry relative="1" as="geometry">
            <mxPoint x="1542" y="635" as="sourcePoint" />
            <mxPoint x="1542" y="531" as="targetPoint" />
          </mxGeometry>
        </mxCell>
        <mxCell id="GQHDGKloXedWPg2WiuIK-158" value="" style="endArrow=none;html=1;rounded=0;exitX=0.25;exitY=0;exitDx=0;exitDy=0;entryX=0.5;entryY=1;entryDx=0;entryDy=0;" parent="1" source="GQHDGKloXedWPg2WiuIK-151" target="GQHDGKloXedWPg2WiuIK-155" edge="1">
          <mxGeometry relative="1" as="geometry">
            <mxPoint x="1552" y="645" as="sourcePoint" />
            <mxPoint x="1552" y="541" as="targetPoint" />
          </mxGeometry>
        </mxCell>
        <mxCell id="GQHDGKloXedWPg2WiuIK-159" value="1: n" style="text;strokeColor=none;fillColor=none;spacingLeft=4;spacingRight=4;overflow=hidden;rotatable=0;points=[[0,0.5],[1,0.5]];portConstraint=eastwest;fontSize=12;whiteSpace=wrap;html=1;" parent="1" vertex="1">
          <mxGeometry x="1530" y="606.25" width="30" height="20" as="geometry" />
        </mxCell>
        <mxCell id="GQHDGKloXedWPg2WiuIK-160" value="n: n" style="text;strokeColor=none;fillColor=none;spacingLeft=4;spacingRight=4;overflow=hidden;rotatable=0;points=[[0,0.5],[1,0.5]];portConstraint=eastwest;fontSize=12;whiteSpace=wrap;html=1;" parent="1" vertex="1">
          <mxGeometry x="1586.75" y="486.25" width="30" height="20" as="geometry" />
        </mxCell>
        <mxCell id="GQHDGKloXedWPg2WiuIK-161" value="1: n" style="text;strokeColor=none;fillColor=none;spacingLeft=4;spacingRight=4;overflow=hidden;rotatable=0;points=[[0,0.5],[1,0.5]];portConstraint=eastwest;fontSize=12;whiteSpace=wrap;html=1;" parent="1" vertex="1">
          <mxGeometry x="869" y="370" width="30" height="20" as="geometry" />
        </mxCell>
        <mxCell id="kyz5QwAfoY5FNnczMksz-1" value="userId" style="ellipse;whiteSpace=wrap;html=1;align=center;fontStyle=4;" parent="1" vertex="1">
          <mxGeometry x="140" y="572.5" width="60" height="30" as="geometry" />
        </mxCell>
        <mxCell id="nj6JdhO1WSneaBsOSodu-1" value="" style="endArrow=none;html=1;rounded=0;exitX=0.5;exitY=1;exitDx=0;exitDy=0;entryX=0.75;entryY=0;entryDx=0;entryDy=0;" parent="1" source="GQHDGKloXedWPg2WiuIK-90" target="GQHDGKloXedWPg2WiuIK-52" edge="1">
          <mxGeometry relative="1" as="geometry">
            <mxPoint x="1312" y="578" as="sourcePoint" />
            <mxPoint x="1300" y="635" as="targetPoint" />
          </mxGeometry>
        </mxCell>
        <mxCell id="nj6JdhO1WSneaBsOSodu-3" value="" style="endArrow=none;html=1;rounded=0;exitX=0;exitY=0.5;exitDx=0;exitDy=0;entryX=1;entryY=0.5;entryDx=0;entryDy=0;" parent="1" source="GQHDGKloXedWPg2WiuIK-62" target="GQHDGKloXedWPg2WiuIK-85" edge="1">
          <mxGeometry relative="1" as="geometry">
            <mxPoint x="1041" y="562" as="sourcePoint" />
            <mxPoint x="1080" y="485" as="targetPoint" />
          </mxGeometry>
        </mxCell>
        <mxCell id="nj6JdhO1WSneaBsOSodu-5" value="" style="endArrow=none;html=1;rounded=0;entryX=0.5;entryY=0;entryDx=0;entryDy=0;exitX=0;exitY=0.5;exitDx=0;exitDy=0;" parent="1" source="GQHDGKloXedWPg2WiuIK-62" target="GQHDGKloXedWPg2WiuIK-89" edge="1">
          <mxGeometry relative="1" as="geometry">
            <mxPoint x="1050" y="540" as="sourcePoint" />
            <mxPoint x="1080" y="485" as="targetPoint" />
          </mxGeometry>
        </mxCell>
        <mxCell id="nj6JdhO1WSneaBsOSodu-8" value="idiomaOriginal" style="shape=rhombus;perimeter=rhombusPerimeter;whiteSpace=wrap;html=1;align=center;" parent="1" vertex="1">
          <mxGeometry x="1870" y="400" width="110" height="50" as="geometry" />
        </mxCell>
        <mxCell id="nj6JdhO1WSneaBsOSodu-9" value="" style="endArrow=none;html=1;rounded=0;entryX=0;entryY=0.5;entryDx=0;entryDy=0;exitX=0.5;exitY=1;exitDx=0;exitDy=0;" parent="1" source="GQHDGKloXedWPg2WiuIK-1" target="nj6JdhO1WSneaBsOSodu-8" edge="1">
          <mxGeometry relative="1" as="geometry">
            <mxPoint x="800" y="360" as="sourcePoint" />
            <mxPoint x="1765" y="505" as="targetPoint" />
          </mxGeometry>
        </mxCell>
        <mxCell id="nj6JdhO1WSneaBsOSodu-10" value="" style="endArrow=none;html=1;rounded=0;entryX=0.5;entryY=1;entryDx=0;entryDy=0;exitX=1;exitY=0.5;exitDx=0;exitDy=0;" parent="1" source="GQHDGKloXedWPg2WiuIK-118" target="nj6JdhO1WSneaBsOSodu-8" edge="1">
          <mxGeometry relative="1" as="geometry">
            <mxPoint x="1925" y="650" as="sourcePoint" />
            <mxPoint x="1765" y="505" as="targetPoint" />
            <Array as="points">
              <mxPoint x="1920" y="645" />
            </Array>
          </mxGeometry>
        </mxCell>
        <mxCell id="G80GN02abMLnTks8KpEn-1" value="1:1" style="text;strokeColor=none;fillColor=none;spacingLeft=4;spacingRight=4;overflow=hidden;rotatable=0;points=[[0,0.5],[1,0.5]];portConstraint=eastwest;fontSize=12;whiteSpace=wrap;html=1;" parent="1" vertex="1">
          <mxGeometry x="1810" y="650" width="40" height="30" as="geometry" />
        </mxCell>
        <mxCell id="G80GN02abMLnTks8KpEn-2" value="n:1" style="text;strokeColor=none;fillColor=none;spacingLeft=4;spacingRight=4;overflow=hidden;rotatable=0;points=[[0,0.5],[1,0.5]];portConstraint=eastwest;fontSize=12;whiteSpace=wrap;html=1;" parent="1" vertex="1">
          <mxGeometry x="1960" y="400" width="40" height="30" as="geometry" />
        </mxCell>
        <mxCell id="f1Sur2l5G5QPgUJz55eG-3" value="&lt;span style=&quot;font-size:11.0pt;font-family:&lt;br/&gt;&amp;quot;Arial&amp;quot;,sans-serif;mso-fareast-font-family:Calibri;mso-fareast-theme-font:minor-latin;&lt;br/&gt;mso-bidi-font-family:&amp;quot;Times New Roman&amp;quot;;mso-bidi-theme-font:minor-bidi;&lt;br/&gt;mso-ansi-language:ES-TRAD;mso-fareast-language:EN-US;mso-bidi-language:AR-SA&quot; lang=&quot;ES-TRAD&quot;&gt;vote_count&lt;/span&gt;" style="ellipse;whiteSpace=wrap;html=1;align=center;" parent="1" vertex="1">
          <mxGeometry x="794" y="155" width="90" height="30" as="geometry" />
        </mxCell>
        <mxCell id="f1Sur2l5G5QPgUJz55eG-4" value="&lt;span style=&quot;font-size:11.0pt;font-family:&lt;br/&gt;&amp;quot;Arial&amp;quot;,sans-serif;mso-fareast-font-family:Calibri;mso-fareast-theme-font:minor-latin;&lt;br/&gt;mso-bidi-font-family:&amp;quot;Times New Roman&amp;quot;;mso-bidi-theme-font:minor-bidi;&lt;br/&gt;mso-ansi-language:ES-TRAD;mso-fareast-language:EN-US;mso-bidi-language:AR-SA&quot; lang=&quot;ES-TRAD&quot;&gt;imdb_id&lt;br&gt;&lt;/span&gt;" style="ellipse;whiteSpace=wrap;html=1;align=center;" parent="1" vertex="1">
          <mxGeometry x="730" y="180" width="69" height="35" as="geometry" />
        </mxCell>
        <mxCell id="f1Sur2l5G5QPgUJz55eG-7" value="" style="endArrow=none;html=1;rounded=0;exitX=1;exitY=1;exitDx=0;exitDy=0;" parent="1" source="f1Sur2l5G5QPgUJz55eG-4" edge="1">
          <mxGeometry relative="1" as="geometry">
            <mxPoint x="730" y="266" as="sourcePoint" />
            <mxPoint x="695" y="320" as="targetPoint" />
            <Array as="points">
              <mxPoint x="790" y="250" />
              <mxPoint x="740" y="270" />
              <mxPoint x="720" y="290" />
            </Array>
          </mxGeometry>
        </mxCell>
        <mxCell id="f1Sur2l5G5QPgUJz55eG-10" value="" style="endArrow=none;html=1;rounded=0;entryX=0.849;entryY=0.007;entryDx=0;entryDy=0;entryPerimeter=0;exitX=0;exitY=1;exitDx=0;exitDy=0;" parent="1" source="f1Sur2l5G5QPgUJz55eG-3" target="GQHDGKloXedWPg2WiuIK-1" edge="1">
          <mxGeometry relative="1" as="geometry">
            <mxPoint x="730" y="266" as="sourcePoint" />
            <mxPoint x="701" y="330" as="targetPoint" />
            <Array as="points">
              <mxPoint x="800" y="250" />
              <mxPoint x="720" y="300" />
            </Array>
          </mxGeometry>
        </mxCell>
        <mxCell id="f1Sur2l5G5QPgUJz55eG-11" value="" style="endArrow=none;html=1;rounded=0;exitX=0;exitY=1;exitDx=0;exitDy=0;entryX=0.844;entryY=-0.011;entryDx=0;entryDy=0;entryPerimeter=0;" parent="1" source="GQHDGKloXedWPg2WiuIK-50" target="GQHDGKloXedWPg2WiuIK-1" edge="1">
          <mxGeometry relative="1" as="geometry">
            <mxPoint x="730" y="266" as="sourcePoint" />
            <mxPoint x="701" y="330" as="targetPoint" />
            <Array as="points">
              <mxPoint x="800" y="260" />
            </Array>
          </mxGeometry>
        </mxCell>
        <mxCell id="f1Sur2l5G5QPgUJz55eG-12" value="" style="endArrow=none;html=1;rounded=0;exitX=0;exitY=0.5;exitDx=0;exitDy=0;entryX=0.845;entryY=-0.002;entryDx=0;entryDy=0;entryPerimeter=0;" parent="1" source="GQHDGKloXedWPg2WiuIK-49" target="GQHDGKloXedWPg2WiuIK-1" edge="1">
          <mxGeometry relative="1" as="geometry">
            <mxPoint x="665" y="258" as="sourcePoint" />
            <mxPoint x="700" y="320" as="targetPoint" />
            <Array as="points">
              <mxPoint x="800" y="270" />
            </Array>
          </mxGeometry>
        </mxCell>
      </root>
    </mxGraphModel>
  </diagram>
</mxfile>
